REM DIRINDEX 1\2\6,1\2\7,1\2\8,1\2\9,1\3\10,1\3\11,1\4\12,1\4\13,1\4\14,1\5\15,1\5\16,1\5\17
REM DIRNAME cjc029,folder01,folder02,folder03,folder04,folder05,folder06,folder07,folder08,folder09,folder10,folder11,folder12,folder13,folder14,folder15,folder16
TITLE ""
FILE "1400_3_sec01_0034_0049.mp3" MP3
  TRACK 01 AUDIO
    TITLE "0:"
    INDEX 01 00:00:00
  TRACK 02 AUDIO
    TITLE "17:cjc029_4494"
    INDEX 01 00:00:15
  TRACK 03 AUDIO
    TITLE "0:"
    INDEX 01 00:01:28
  TRACK 04 AUDIO
    TITLE "16:cjc029_4495"
    INDEX 01 00:01:32
  TRACK 05 AUDIO
    TITLE "0:"
    INDEX 01 00:02:36
  TRACK 06 AUDIO
    TITLE "17:cjc029_4496"
    INDEX 01 00:03:17
  TRACK 07 AUDIO
    TITLE "0:"
    INDEX 01 00:04:48
  TRACK 08 AUDIO
    TITLE "16:cjc029_4497"
    INDEX 01 00:04:56
  TRACK 09 AUDIO
    TITLE "0:"
    INDEX 01 00:05:61
  TRACK 10 AUDIO
    TITLE "17:cjc029_4498"
    INDEX 01 00:06:43
  TRACK 11 AUDIO
    TITLE "0:"
    INDEX 01 00:09:24
  TRACK 12 AUDIO
    TITLE "16:cjc029_4499"
    INDEX 01 00:09:30
  TRACK 13 AUDIO
    TITLE "0:"
    INDEX 01 00:10:29
  TRACK 14 AUDIO
    TITLE "17:cjc029_4500"
    INDEX 01 00:11:15
  TRACK 15 AUDIO
    TITLE "0:"
    INDEX 01 00:12:12
  TRACK 16 AUDIO
    TITLE "16:cjc029_4501"
    INDEX 01 00:12:18
  TRACK 17 AUDIO
    TITLE "0:"
    INDEX 01 00:13:26
  TRACK 18 AUDIO
    TITLE "17:cjc029_4502"
    INDEX 01 00:14:11
  TRACK 19 AUDIO
    TITLE "0:"
    INDEX 01 00:15:21
  TRACK 20 AUDIO
    TITLE "16:cjc029_4503"
    INDEX 01 00:15:25
  TRACK 21 AUDIO
    TITLE "0:"
    INDEX 01 00:16:38
  TRACK 22 AUDIO
    TITLE "17:cjc029_4504"
    INDEX 01 00:17:23
  TRACK 23 AUDIO
    TITLE "0:"
    INDEX 01 00:18:54
  TRACK 24 AUDIO
    TITLE "16:cjc029_4505"
    INDEX 01 00:18:60
  TRACK 25 AUDIO
    TITLE "0:"
    INDEX 01 00:19:67
  TRACK 26 AUDIO
    TITLE "17:cjc029_4506"
    INDEX 01 00:20:51
  TRACK 27 AUDIO
    TITLE "0:"
    INDEX 01 00:22:62
  TRACK 28 AUDIO
    TITLE "16:cjc029_4507"
    INDEX 01 00:22:72
  TRACK 29 AUDIO
    TITLE "0:"
    INDEX 01 00:24:08
  TRACK 30 AUDIO
    TITLE "17:cjc029_4508"
    INDEX 01 00:24:69
  TRACK 31 AUDIO
    TITLE "0:"
    INDEX 01 00:26:20
  TRACK 32 AUDIO
    TITLE "16:cjc029_4509"
    INDEX 01 00:26:26
  TRACK 33 AUDIO
    TITLE "0:"
    INDEX 01 00:27:45
  TRACK 34 AUDIO
    TITLE "17:cjc029_4510"
    INDEX 01 00:28:27
  TRACK 35 AUDIO
    TITLE "0:"
    INDEX 01 00:30:57
  TRACK 36 AUDIO
    TITLE "16:cjc029_4511"
    INDEX 01 00:30:61
  TRACK 37 AUDIO
    TITLE "0:"
    INDEX 01 00:31:59
  TRACK 38 AUDIO
    TITLE "17:cjc029_4512"
    INDEX 01 00:32:47
  TRACK 39 AUDIO
    TITLE "0:"
    INDEX 01 00:35:45
  TRACK 40 AUDIO
    TITLE "16:cjc029_4513"
    INDEX 01 00:35:51
  TRACK 41 AUDIO
    TITLE "0:"
    INDEX 01 00:36:66
  TRACK 42 AUDIO
    TITLE "17:cjc029_4514"
    INDEX 01 00:37:52
  TRACK 43 AUDIO
    TITLE "0:"
    INDEX 01 00:38:41
  TRACK 44 AUDIO
    TITLE "16:cjc029_4515"
    INDEX 01 00:38:47
  TRACK 45 AUDIO
    TITLE "0:"
    INDEX 01 00:39:52
  TRACK 46 AUDIO
    TITLE "17:cjc029_4516"
    INDEX 01 00:40:36
  TRACK 47 AUDIO
    TITLE "0:"
    INDEX 01 00:42:53
  TRACK 48 AUDIO
    TITLE "16:cjc029_4517"
    INDEX 01 00:42:61
  TRACK 49 AUDIO
    TITLE "0:"
    INDEX 01 00:43:66
  TRACK 50 AUDIO
    TITLE "17:cjc029_4518"
    INDEX 01 00:44:48
  TRACK 51 AUDIO
    TITLE "0:"
    INDEX 01 00:45:57
  TRACK 52 AUDIO
    TITLE "16:cjc029_4519"
    INDEX 01 00:45:61
  TRACK 53 AUDIO
    TITLE "0:"
    INDEX 01 00:46:64
  TRACK 54 AUDIO
    TITLE "17:cjc029_4520"
    INDEX 01 00:47:48
  TRACK 55 AUDIO
    TITLE "0:"
    INDEX 01 00:48:49
  TRACK 56 AUDIO
    TITLE "16:cjc029_4521"
    INDEX 01 00:48:53
  TRACK 57 AUDIO
    TITLE "0:"
    INDEX 01 00:49:57
  TRACK 58 AUDIO
    TITLE "17:cjc029_4522"
    INDEX 01 00:50:44
  TRACK 59 AUDIO
    TITLE "0:"
    INDEX 01 00:51:54
  TRACK 60 AUDIO
    TITLE "16:cjc029_4523"
    INDEX 01 00:51:60
  TRACK 61 AUDIO
    TITLE "0:"
    INDEX 01 00:52:63
  TRACK 62 AUDIO
    TITLE "17:cjc029_4524"
    INDEX 01 00:53:45
  TRACK 63 AUDIO
    TITLE "0:"
    INDEX 01 00:54:44
  TRACK 64 AUDIO
    TITLE "16:cjc029_4525"
    INDEX 01 00:54:50
  TRACK 65 AUDIO
    TITLE "0:"
    INDEX 01 00:55:59
